<svg width="317" height="99" viewBox="0 0 317 99" fill="none" xmlns="http://www.w3.org/2000/svg">
<path d="M65.9256 20.1807C55.2692 19.1985 48.758 26.8055 48.2846 34.1355C47.6408 44.1039 54.0775 50.1386 65.9919 50.8018C62.0397 58.4754 56.142 63.9413 48.2528 67.201C40.357 70.4628 32.29 70.7263 23.9983 68.0279V98.8095C23.0352 99.0159 22.3582 98.5411 21.6904 98.2268C8.24114 91.9011 1.13233 81.2846 0.765835 66.4401C0.510735 56.1054 0.646542 45.7588 0.733042 35.4186C0.876542 18.2436 12.9627 4.19031 29.8918 1.37441C44.3719 -1.03429 60.2579 7.20161 65.9256 20.1807V20.1807Z" fill="#ED7A24"/>
<path d="M24.3443 35.4426C24.3288 29.4196 29.1798 24.5157 35.1686 24.5002C41.0861 24.485 46.0426 29.4584 46.0486 35.4176C46.0546 41.3859 41.1302 46.3417 35.188 46.347C29.2098 46.3523 24.3602 41.4755 24.3443 35.4426Z" fill="white"/>
<path d="M52.3314 35.4426C52.3159 29.4196 57.1669 24.5157 63.1557 24.5002C69.0732 24.485 74.0297 29.4584 74.0357 35.4176C74.0417 41.3859 69.1173 46.3417 63.1751 46.347C57.1969 46.3523 52.3473 41.4755 52.3314 35.4426Z" fill="#232323"/>
<path d="M143.785 10.8958C144.02 11.0726 144.255 11.2648 144.492 11.4701C146.2 13.2093 147.055 15.3006 147.055 17.7457C147.055 20.1922 146.193 22.2764 144.469 23.999C142.746 25.7234 140.661 26.5849 138.216 26.5849C135.77 26.5849 133.693 25.7164 131.985 23.9775C131.778 23.8004 131.587 23.5951 131.41 23.3587C131.204 23.2413 131.012 23.0935 130.836 22.9167C127.389 19.4694 123.219 17.7457 118.329 17.7457C113.438 17.7457 109.269 19.4694 105.822 22.9167C102.375 26.3637 100.651 30.5335 100.651 35.4237C100.651 40.315 102.375 44.4834 105.822 47.9304C109.269 51.3778 113.438 53.1014 118.329 53.1014C123.219 53.1014 127.389 51.3778 130.836 47.9304C131.012 47.7537 131.189 47.6069 131.366 47.4887C131.543 47.2831 131.748 47.0622 131.985 46.8259C133.693 45.1177 135.77 44.2626 138.216 44.2626C140.661 44.2626 142.746 45.1237 144.469 46.8485C146.193 48.5707 147.055 50.6563 147.055 53.1014C147.055 55.5476 146.2 57.6244 144.492 59.3326C144.197 59.6278 143.902 59.8928 143.608 60.1281C143.52 60.2166 143.431 60.3052 143.343 60.3934C136.419 67.3177 128.08 70.7791 118.329 70.7791C108.576 70.7791 100.245 67.3251 93.3364 60.4152C86.4266 53.5064 82.9732 45.1763 82.9732 35.4237C82.9732 25.6719 86.4266 17.3411 93.3364 10.4323C100.245 3.52241 108.576 0.0680084 118.329 0.0680084C128.08 0.0680084 136.419 3.51531 143.343 10.4097C143.49 10.5578 143.637 10.7191 143.785 10.8958V10.8958Z" fill="#232323"/>
<path d="M203.757 47.9306C207.204 44.4836 208.927 40.3148 208.927 35.4236C208.927 30.5334 207.204 26.3639 203.757 22.9165C200.31 19.4695 196.139 17.7459 191.25 17.7459C186.358 17.7459 182.19 19.4695 178.743 22.9165C175.295 26.3639 173.572 30.5334 173.572 35.4236C173.572 40.3148 175.295 44.4836 178.743 47.9306C182.19 51.3779 186.358 53.1016 191.25 53.1016C196.139 53.1016 200.31 51.3779 203.757 47.9306ZM191.25 70.779C181.497 70.779 173.166 67.3249 166.257 60.4151C159.347 53.5063 155.894 45.1761 155.894 35.4236C155.894 25.6721 159.347 17.3409 166.257 10.4324C173.166 3.52262 181.497 0.068222 191.25 0.068222C201.001 0.068222 209.331 3.52262 216.241 10.4324C223.15 17.3409 226.605 25.6721 226.605 35.4236C226.605 45.1761 223.15 53.5063 216.241 60.4151C209.331 67.3249 201.001 70.779 191.25 70.779Z" fill="#232323"/>
<path d="M275.219 34.3187L284.058 7.80212C284.617 5.82872 285.472 4.11951 286.621 2.67561C288.359 0.937414 290.45 0.068222 292.897 0.068222C295.342 0.068222 297.419 0.937414 299.128 2.67561C300.306 4.11951 301.175 5.82872 301.735 7.80212L313.889 57.5209C314.331 58.8466 314.699 60.3205 314.994 61.9401C314.994 64.3863 314.132 66.4705 312.408 68.1931C310.684 69.9178 308.6 70.779 306.155 70.779C303.709 70.779 301.617 69.9249 299.879 68.2157C298.73 66.7432 297.89 65.0195 297.36 63.045H297.316L291.792 39.8432L284.058 63.045H284.014C284.014 63.075 283.998 63.1191 283.97 63.1777C283.733 65.0936 282.893 66.7728 281.45 68.2157C279.741 69.9249 277.664 70.779 275.219 70.779C272.772 70.779 270.623 69.8508 268.767 67.9948C267.469 66.6105 266.704 65.005 266.468 63.1777C266.438 63.1191 266.424 63.075 266.424 63.045H266.38L258.646 39.8432L253.122 63.045H253.077C252.547 65.0195 251.692 66.7432 250.514 68.2157C248.805 69.9249 246.728 70.779 244.283 70.779C241.837 70.779 239.752 69.9178 238.029 68.1931C236.305 66.4705 235.444 64.3863 235.444 61.9401C235.738 60.3205 236.107 58.8466 236.549 57.5209L248.702 7.80212C249.261 5.82872 250.117 4.11951 251.266 2.67561C253.003 0.937414 255.095 0.068222 257.541 0.068222C259.986 0.068222 262.063 0.937414 263.773 2.67561C264.951 4.11951 265.819 5.82872 266.38 7.80212L275.219 34.3187V34.3187Z" fill="#232323"/>
<path d="M32.5643 79.9433H35.8363V98.674H32.5643V79.9433Z" fill="#232323"/>
<path d="M49.0019 84.9673V98.6741H45.8844V81.6698C45.8844 81.0684 46.0343 80.5921 46.3352 80.24C46.6354 79.8883 47.044 79.7116 47.559 79.7116C47.7993 79.7116 48.0314 79.7627 48.2547 79.8661C48.4776 79.9695 48.7094 80.1413 48.9504 80.3815L62.1672 93.4953V79.7892H65.2847V96.9479C65.2847 97.566 65.1341 98.0472 64.8338 98.3904C64.5329 98.7337 64.142 98.9059 63.6616 98.9059C63.1289 98.9059 62.6311 98.6741 62.1672 98.2102L49.0019 84.9673V84.9673Z" fill="#232323"/>
<path d="M80.7943 88.059H90.2756V90.9189H80.7943V88.059ZM75.152 98.674V79.9433H91.0485V83.2157H78.3983V98.674H75.152Z" fill="#232323"/>
<path d="M113.128 95.4021C113.987 95.4021 114.777 95.2476 115.498 94.9382C116.22 94.6292 116.842 94.2041 117.366 93.6629C117.89 93.1217 118.298 92.4733 118.59 91.7177C118.882 90.9617 119.028 90.1464 119.028 89.2701C119.028 88.3942 118.882 87.5824 118.59 86.8356C118.298 86.0881 117.89 85.4485 117.366 84.9158C116.842 84.3841 116.22 83.9672 115.498 83.6662C114.777 83.366 113.987 83.2157 113.128 83.2157H108.568C107.726 83.2157 106.948 83.366 106.236 83.6662C105.523 83.9672 104.909 84.3841 104.394 84.9158C103.879 85.4485 103.475 86.0845 103.183 86.8225C102.891 87.5609 102.745 88.3772 102.745 89.2701C102.745 90.1464 102.891 90.9617 103.183 91.7177C103.475 92.4733 103.879 93.1217 104.394 93.6629C104.909 94.2041 105.523 94.6292 106.236 94.9382C106.948 95.2476 107.726 95.4021 108.568 95.4021H113.128V95.4021ZM108.568 98.6738C107.262 98.6738 106.056 98.4293 104.948 97.9396C103.84 97.4503 102.878 96.7801 102.062 95.9299C101.247 95.0797 100.611 94.0714 100.156 92.9027C99.7006 91.735 99.4731 90.4727 99.4731 89.116C99.4731 87.7412 99.7006 86.4874 100.156 85.3539C100.611 84.2205 101.247 83.2542 102.062 82.4555C102.878 81.6568 103.84 81.0381 104.948 80.6006C106.056 80.1625 107.262 79.9434 108.568 79.9434H113.128C114.484 79.9434 115.726 80.167 116.851 80.613C117.976 81.0603 118.942 81.6872 119.749 82.4943C120.557 83.3015 121.183 84.2677 121.63 85.3924C122.077 86.5177 122.3 87.7585 122.3 89.116C122.3 90.4727 122.072 91.735 121.617 92.9027C121.162 94.0714 120.526 95.0797 119.711 95.9299C118.895 96.7801 117.929 97.4503 116.812 97.9396C115.696 98.4293 114.468 98.6738 113.128 98.6738H108.568Z" fill="#232323"/>
<path d="M149.043 98.6739L144.302 93.4694H137.295V90.5837H145.101C146.286 90.5837 147.179 90.2619 147.78 89.6177C148.381 88.9736 148.682 88.0422 148.682 86.8223C148.682 85.6031 148.369 84.6969 147.742 84.1045C147.114 83.5119 146.235 83.2159 145.101 83.2159H134.898V98.6739H131.652V79.9432H145.101C146.166 79.9432 147.119 80.1023 147.961 80.4201C148.802 80.7383 149.515 81.1927 150.099 81.7857C150.683 82.378 151.13 83.0956 151.439 83.937C151.748 84.7787 151.902 85.7231 151.902 86.7712C151.902 88.334 151.563 89.6435 150.885 90.6997C150.206 91.7566 149.257 92.5165 148.038 92.9797L153.68 98.6739H149.043V98.6739Z" fill="#232323"/>
<path d="M185.396 98.6739L181.815 85.5086L176.507 97.6949C176.318 98.0901 176.091 98.3952 175.824 98.6093C175.558 98.8238 175.227 98.9318 174.833 98.9318C174.059 98.9318 173.501 98.5194 173.158 97.6949L167.876 85.5086L164.295 98.6739H161.074L165.892 81.0512C166.116 80.1587 166.656 79.7114 167.515 79.7114C167.859 79.7114 168.181 79.8066 168.482 79.995C168.782 80.1845 169.01 80.4589 169.164 80.8198L174.936 94.0624L180.707 80.8198C181.016 80.0811 181.539 79.7114 182.278 79.7114C183.068 79.7114 183.593 80.1587 183.85 81.0512L188.642 98.6739H185.396V98.6739Z" fill="#232323"/>
<path d="M206.084 78.7843V77.3157L212.68 75.3317V77.3669L206.084 78.7843ZM217.034 98.6739L214.225 93.9591H205.363L206.909 91.3055H212.654L208.48 84.2975L199.978 98.6739H196.243L207.012 80.7422C207.201 80.4159 207.424 80.1588 207.682 79.9693C207.939 79.7802 208.249 79.686 208.609 79.686C208.97 79.686 209.275 79.7802 209.524 79.9693C209.773 80.1588 209.991 80.4159 210.181 80.7422L220.976 98.6739H217.034V98.6739Z" fill="#232323"/>
<path d="M232.364 98.6739V83.2159H225.253V79.9432H242.747V83.2159H235.635V98.6739H232.364Z" fill="#232323"/>
<path d="M251.79 79.9433H255.062V98.674H251.79V79.9433Z" fill="#232323"/>
<path d="M273.741 98.6739C272.435 98.6739 271.229 98.4294 270.121 97.9398C269.013 97.4501 268.051 96.7802 267.235 95.93C266.419 95.0798 265.784 94.0712 265.329 92.9028C264.873 91.7351 264.646 90.4729 264.646 89.1157C264.646 87.7413 264.873 86.4876 265.329 85.3537C265.784 84.2202 266.419 83.2543 267.235 82.4553C268.051 81.657 269.013 81.0382 270.121 80.6007C271.229 80.1622 272.435 79.9432 273.741 79.9432H283.892V83.2159H273.741C272.899 83.2159 272.122 83.3658 271.409 83.6664C270.696 83.9673 270.082 84.3839 269.567 84.9159C269.051 85.4486 268.648 86.0843 268.356 86.8223C268.064 87.5611 267.918 88.3774 267.918 89.2703C267.918 90.1462 268.064 90.9618 268.356 91.7175C268.648 92.4735 269.051 93.1219 269.567 93.6631C270.082 94.2039 270.696 94.629 271.409 94.938C272.122 95.2474 272.899 95.4022 273.741 95.4022H283.892V98.6739H273.741Z" fill="#232323"/>
<path d="M312.773 98.6739L309.964 93.959H301.102L302.647 91.3054H308.393L304.219 84.2975L295.717 98.6739H291.981L302.751 80.7422C302.939 80.4159 303.162 80.1587 303.42 79.9693C303.678 79.7802 303.987 79.686 304.348 79.686C304.708 79.686 305.013 79.7802 305.263 79.9693C305.511 80.1587 305.73 80.4159 305.919 80.7422L316.714 98.6739H312.773V98.6739Z" fill="#232323"/>
</svg>
