<svg width="245" height="151" viewBox="0 0 245 151" fill="none" xmlns="http://www.w3.org/2000/svg">
<path fill-rule="evenodd" clip-rule="evenodd" d="M180.55 80.1267C179.141 80.0574 177.682 79.8722 176.388 79.4455C175.103 79.022 173.821 78.3268 173.133 77.111L173.12 77.0869C172.582 76.0862 172.493 75.0026 172.849 73.9478L172.425 74.8583L172.402 74.8995C171.777 76.0237 170.719 76.9194 169.654 77.6133C168.252 78.5275 166.642 79.1188 165.022 79.5123C163.496 79.883 161.936 80.119 160.364 80.1611L160.347 80.1616H154.318C152.78 80.1616 151.253 79.9584 149.788 79.4862C148.501 79.0718 147.252 78.3868 146.517 77.2109L146.504 77.1908L146.493 77.1702C145.856 76.0641 145.797 74.8522 146.349 73.6987L155.638 54.3127L155.649 54.2916C156.254 53.1399 157.342 52.231 158.42 51.5386C159.815 50.6428 161.4 50.0485 163.003 49.652C164.643 49.2467 166.326 49.0013 168.017 49.0013H174.046L174.064 49.0018C175.478 49.0401 176.891 49.245 178.24 49.6757C179.531 50.0879 180.785 50.762 181.539 51.9286L181.567 51.9709L181.591 52.0152C182.182 53.106 182.238 54.2955 181.733 55.4309L181.507 55.9187L182.323 54.2314L182.335 54.2092C182.99 52.9783 184.064 52.0263 185.223 51.2804C186.613 50.3856 188.188 49.8153 189.799 49.472C191.409 49.1292 193.053 48.9256 194.699 48.9256H201.769L205.266 44.7899L207.199 46.0454L205.399 49.77C206.507 50.1999 207.535 50.8602 208.181 51.8845L208.197 51.9116C208.843 52.9931 208.918 54.1838 208.422 55.3392L208.41 55.3658L204.167 64.156H204.162L199.077 74.7502C198.382 76.1511 197.367 77.2767 196.02 78.0728C194.755 78.8212 193.377 79.3269 191.939 79.6233C190.766 79.865 189.556 80.0418 188.356 80.0794L178.383 84.8798L177.136 82.9214L180.55 80.1267V80.1267ZM184.826 76.6262L200.061 64.156H188.894L198.996 52.206L181.634 64.7228H192.289L184.826 76.6262ZM174.937 69.5507L174.9 69.577L180.518 57.9622H168.788L170.536 54.2899C170.568 54.2197 170.62 54.1035 170.667 53.9839C170.472 53.9692 170.266 53.9663 170.145 53.9655C169.861 53.9634 169.096 53.9809 168.839 54.1147L168.818 54.1258L168.796 54.1361C168.551 54.2523 168.325 54.3993 168.134 54.5929C167.988 54.7413 167.856 54.9232 167.744 55.1013L158.092 75.1838C158.3 75.1984 158.528 75.1984 158.657 75.1975C158.933 75.1956 159.66 75.1759 159.919 75.062L159.935 75.0531L159.959 75.0406C160.22 74.9094 160.459 74.749 160.668 74.5453C160.879 74.3404 161.047 74.0415 161.168 73.7769L162.672 70.6073H174.404L173.742 72.0289L174.937 69.5507V69.5507ZM133.1 75.1432C133.469 74.623 133.973 74.2044 134.511 73.8617C135.308 73.354 136.201 73.0079 137.114 72.7755C138.069 72.5325 139.038 72.4005 140.023 72.4005C140.916 72.4005 141.804 72.5217 142.653 72.8002C143.476 73.0701 144.262 73.5216 144.729 74.275L144.74 74.2916L144.749 74.3086C145.202 75.0898 145.219 75.958 144.842 76.7747L144.835 76.7909L144.827 76.8069C144.446 77.5781 143.773 78.1559 143.051 78.5987C142.243 79.094 141.349 79.4377 140.433 79.6725C139.505 79.9103 138.553 80.048 137.594 80.048C136.702 80.048 135.814 79.9268 134.964 79.6483C134.139 79.3776 133.349 78.9203 132.89 78.1569C132.515 77.5321 132.423 76.8462 132.602 76.1789L130.741 80.048H118.269L124.004 68.1164C123.935 68.1151 123.866 68.1148 123.798 68.1148C123.463 68.1148 122.972 68.1141 122.646 68.1924L122.615 68.1993C122.536 68.2163 122.37 68.2548 122.301 68.3002L122.261 68.3326L122.214 68.3635C122.206 68.369 122.197 68.375 122.188 68.3813L116.58 80.048H77.5299L79.8859 75.1779C79.2588 76.1112 78.3432 76.862 77.4152 77.4677C76.0268 78.3739 74.4561 78.9744 72.8535 79.3772C71.1944 79.7941 69.4871 80.048 67.7741 80.048H50.9625L64.7888 51.2956L47.8419 70.9155L43.4307 80.048H32.0613L36.9955 69.8327L39.0063 49.115H49.0319L48.1634 57.9609L55.8211 49.115H65.8375L65.8466 49.096H81.6978L81.7157 49.0965C83.1237 49.135 84.523 49.3063 85.889 49.6543L85.9267 49.6639L85.9637 49.6757C87.2482 50.0856 88.498 50.7722 89.2349 51.9416L89.2489 51.9638L89.262 51.9865C89.8985 53.0925 89.9573 54.3102 89.4054 55.4636L87.8135 58.7909L92.4944 49.115H134.84L134.855 49.1153C136.285 49.148 137.703 49.3501 139.069 49.7819C140.361 50.1902 141.624 50.8892 142.329 52.0906C142.964 53.1729 143.044 54.3696 142.549 55.5224L142.538 55.5481L138.956 62.9969L138.943 63.0202C138.328 64.1779 137.262 65.0761 136.171 65.77C135.942 65.916 135.707 66.0539 135.468 66.1844C135.47 66.1869 135.471 66.1893 135.473 66.1918L135.506 66.2384L135.534 66.2876C136.166 67.386 136.228 68.5893 135.697 69.7413L133.1 75.1432V75.1432ZM115.759 55.8344H101.643L99.3756 60.562H110.329L106.915 67.6918H95.9482L93.2522 73.3286H107.341L115.759 55.8344V55.8344ZM86.919 60.6399C86.3151 61.7199 85.3109 62.575 84.2897 63.2422C83.9976 63.4331 83.6974 63.6105 83.3904 63.7752C83.4197 63.8194 83.4483 63.8642 83.4761 63.9096C84.0632 64.8713 84.1984 65.9226 83.8629 66.9571L86.919 60.6399ZM25.3795 53.9839C25.1842 53.9692 24.9781 53.9663 24.8574 53.9655C24.573 53.9634 23.8085 53.9809 23.551 54.1147L23.5297 54.1258L23.508 54.1361C23.263 54.2523 23.0373 54.3993 22.8463 54.5929C22.6997 54.7413 22.5685 54.9233 22.4556 55.1014L12.8043 75.1838C13.0124 75.1984 13.2397 75.1984 13.3687 75.1975C13.6449 75.1956 14.3726 75.1759 14.6309 75.062L14.6468 75.0531L14.6716 75.0406C14.9318 74.9095 15.171 74.749 15.3802 74.5454C15.5908 74.3404 15.7595 74.0415 15.8805 73.7769L17.3844 70.6073H29.1159L27.1374 74.8583L27.1145 74.8995C26.4891 76.0238 25.4307 76.9194 24.3663 77.6133C22.964 78.5274 21.3545 79.1188 19.7344 79.5123C18.208 79.883 16.6482 80.119 15.0766 80.1611L15.059 80.1616H9.02991C7.49241 80.1616 5.96551 79.9584 4.49971 79.4862C3.21301 79.0718 1.96411 78.3868 1.22921 77.2108L1.21671 77.1907L1.20481 77.1702C0.568212 76.0641 0.509013 74.8522 1.06171 73.6987L10.3504 54.3127L10.3614 54.2916C10.9657 53.1399 12.0545 52.231 13.1324 51.5386C14.5267 50.6428 16.1119 50.0485 17.7152 49.652C19.3546 49.2467 21.0383 49.0013 22.7291 49.0013H28.7585L28.7763 49.0018C30.19 49.0401 31.6027 49.245 32.9519 49.6758C34.2429 50.0879 35.4968 50.762 36.2513 51.9286L36.2786 51.9709L36.3026 52.0151C36.8945 53.1059 36.9505 54.2956 36.4451 55.431L35.272 57.9622H23.5006L25.2482 54.2899C25.2802 54.2197 25.3326 54.1035 25.3795 53.9839V53.9839ZM211.187 73.5952L208.078 80.048H196.784L211.669 49.115H222.206L222.175 61.1336L233.671 49.115H244.716L229.818 80.048H218.522L221.631 73.5952H211.187V73.5952ZM222.013 72.8019L222.052 72.7227L222.024 72.7515L222.013 72.8019ZM66.6106 73.4738H66.8146C67.1231 73.4738 67.6322 73.4735 67.9309 73.3928L67.9556 73.3864C68.1091 73.3481 68.2644 73.2935 68.4068 73.221C68.4082 73.2198 68.4095 73.2187 68.4109 73.2175L71.2571 67.2828C71.2382 67.2826 71.2194 67.2824 71.201 67.2821C70.6649 67.2737 70.1284 67.2706 69.5919 67.2695L66.6106 73.4738ZM76.7375 55.9256C76.6996 55.9249 76.6627 55.9241 76.627 55.9232C76.1067 55.9093 75.5857 55.9019 75.0648 55.8971L72.8099 60.5621H73.0328C73.3687 60.5558 73.8597 60.5531 74.2052 60.4822C74.3425 60.446 74.4778 60.3861 74.6001 60.3136C74.6056 60.3096 74.6111 60.3056 74.6165 60.3015L76.7375 55.9256V55.9256ZM125.823 60.8395C126.328 60.7507 126.837 60.6602 127.338 60.553C127.448 60.5294 127.567 60.4911 127.66 60.4241L127.7 60.3953C127.769 60.2885 127.841 60.1328 127.885 60.0387L129.905 55.8376C129.829 55.8362 129.759 55.8354 129.7 55.8343L128.217 55.8344L125.823 60.8395V60.8395Z" fill="#282829"/>
<path d="M11.5194 54.8992C11.9203 54.1352 12.6976 53.3776 13.8392 52.6388C15.0171 51.8875 16.4259 51.3129 18.0291 50.9215C19.6685 50.5111 21.2353 50.309 22.7291 50.309H28.7408C30.1375 50.3469 31.4126 50.549 32.5542 50.9215C33.8052 51.3129 34.6673 51.8875 35.1532 52.6388C35.5541 53.3776 35.5905 54.1352 35.2504 54.8992L34.4368 56.6545H25.5711L26.4334 54.8424C26.664 54.3373 26.7856 53.9458 26.7856 53.6743C26.7856 53.3902 26.6761 53.1503 26.4698 52.9545C26.2755 52.7714 25.7412 52.6704 24.8667 52.6578C23.9678 52.6578 23.3242 52.7588 22.9478 52.9545C22.5348 53.1503 22.1947 53.3902 21.9155 53.6743C21.7212 53.87 21.5146 54.1352 21.3082 54.4699L11.5923 74.6868C11.471 75.0214 11.4102 75.2866 11.4102 75.4824C11.4102 75.7665 11.5194 76.0064 11.7381 76.2084C11.9203 76.4042 12.4667 76.5052 13.3777 76.5052C14.3007 76.4926 14.9322 76.3915 15.2601 76.2084C15.6609 76.0064 16.001 75.7665 16.2924 75.4824C16.5717 75.2109 16.8389 74.8257 17.0698 74.3206L18.2113 71.915H27.0649L25.9717 74.2638C25.5467 75.0278 24.7695 75.7791 23.6522 76.5178C22.474 77.2755 21.0531 77.8437 19.4258 78.2415C17.9076 78.6077 16.4504 78.8161 15.0415 78.8539H9.02992C7.53612 78.8539 6.16362 78.6456 4.90062 78.2415C3.67402 77.8437 2.81172 77.2755 2.33822 76.5178C1.91302 75.7791 1.87652 75.0278 2.24102 74.2638L11.5194 54.8992V54.8992ZM46.7394 70.1913L42.6101 78.7403H34.1452L38.2745 70.1913L40.1932 50.4227H47.5895L46.46 61.9265L56.4187 50.4227H63.8149L46.7394 70.1913V70.1913ZM66.6688 50.4037H81.6799C83.0643 50.4416 84.3516 50.6121 85.5662 50.9215C86.7928 51.3129 87.6551 51.8875 88.1286 52.6388C88.5538 53.3776 88.5901 54.1352 88.2258 54.8992L85.8454 59.8745C85.4448 60.6637 84.6796 61.4214 83.5744 62.1475C82.8336 62.6274 81.9956 63.0441 81.0482 63.385C81.6434 63.7197 82.0806 64.1237 82.3599 64.591C82.8092 65.3171 82.8578 66.0684 82.5057 66.845L79.0201 74.0807C78.6073 74.8699 77.8421 75.6339 76.7005 76.3726C75.5589 77.124 74.1744 77.7048 72.5348 78.1089C70.883 78.5319 69.2921 78.7403 67.7741 78.7403H53.0424L66.6688 50.4037V50.4037ZM64.5314 74.7815H66.8146C67.4827 74.7815 67.9683 74.7373 68.2721 74.6552C68.5756 74.5795 68.867 74.4658 69.1221 74.3206C69.3408 74.1564 69.4866 74.0112 69.5472 73.8723L72.9356 66.8071C73.0085 66.6745 73.0085 66.5293 72.9356 66.3841C72.8627 66.2262 72.6927 66.1063 72.4377 66.0305C72.2192 65.98 71.0046 65.9611 68.7698 65.9611L64.5314 74.7815V74.7815ZM78.4128 55.4674C78.4615 55.3349 78.4493 55.196 78.3764 55.0444C78.3278 54.8866 78.1577 54.7666 77.8785 54.6908C77.66 54.634 76.4576 54.5961 74.2473 54.5835L70.7254 61.8697H73.0449C73.725 61.8571 74.2107 61.8192 74.5023 61.756C74.7816 61.6866 75.0609 61.5666 75.3159 61.4088C75.5346 61.2572 75.6682 61.1183 75.7411 60.9794L78.4128 55.4674V55.4674ZM91.1771 74.6363H105.338L103.346 78.7403H79.6152L93.3145 50.4227H116.973L114.981 54.5267H100.82L97.2981 61.8697H108.253L106.091 66.3841H95.1241L91.1771 74.6363V74.6363ZM124.624 66.845C124.405 66.8198 124.138 66.8071 123.798 66.8071C123.142 66.8071 122.656 66.845 122.341 66.9208C121.988 66.9965 121.697 67.1102 121.491 67.2743C121.272 67.4196 121.126 67.5585 121.065 67.6974L115.758 78.7403H106.188L119.814 50.4227H134.825C136.21 50.4543 137.485 50.6626 138.675 51.0288C139.902 51.4266 140.752 52.0011 141.201 52.7525C141.626 53.4912 141.675 54.2426 141.347 55.0065L137.789 62.4064C137.376 63.183 136.611 63.9343 135.469 64.6667C134.765 65.1087 133.987 65.4875 133.162 65.8095C133.684 66.1315 134.097 66.5041 134.4 66.9397C134.825 67.6784 134.862 68.4298 134.51 69.1938L129.919 78.7403H120.349L125.656 67.6974C125.717 67.5585 125.717 67.4196 125.656 67.2743C125.583 67.1102 125.413 66.9965 125.158 66.9208C125.134 66.9208 125.122 66.9145 125.122 66.9018C124.952 66.8892 124.782 66.8703 124.624 66.845V66.845ZM123.446 62.7789C123.822 62.6526 124.211 62.5453 124.624 62.4443C125.073 62.3306 125.51 62.2422 125.935 62.1664V62.1475C126.761 62.0023 127.32 61.8949 127.611 61.8318C127.939 61.7624 128.206 61.6424 128.425 61.4845C128.619 61.4088 128.826 61.112 129.069 60.5943L131.558 55.4169C131.631 55.278 131.631 55.1391 131.558 54.9876C131.485 54.8297 131.316 54.7098 131.061 54.6403C130.842 54.5772 130.392 54.5393 129.712 54.5267H127.393L123.446 62.7789V62.7789ZM137.594 78.7403C136.793 78.7403 136.052 78.6267 135.372 78.4057C134.704 78.1847 134.242 77.8753 134.012 77.4838C133.769 77.0861 133.757 76.6694 133.975 76.2274C134.182 75.7791 134.595 75.3624 135.214 74.9646C135.833 74.5732 136.574 74.2638 137.436 74.0428C138.311 73.8218 139.161 73.7082 140.023 73.7082C140.825 73.7082 141.566 73.8218 142.246 74.0428C142.914 74.2638 143.375 74.5732 143.618 74.9646C143.849 75.3624 143.861 75.7791 143.655 76.2274C143.436 76.6694 143.011 77.0861 142.367 77.4838C141.724 77.8753 140.971 78.1847 140.108 78.4057C139.246 78.6267 138.408 78.7403 137.594 78.7403V78.7403ZM156.807 54.8992C157.208 54.1352 157.985 53.3776 159.127 52.6388C160.305 51.8875 161.714 51.3129 163.317 50.9215C164.957 50.5111 166.523 50.309 168.017 50.309H174.029C175.425 50.3469 176.7 50.549 177.842 50.9215C179.093 51.3129 179.955 51.8875 180.441 52.6388C180.842 53.3776 180.878 54.1352 180.538 54.8992L179.725 56.6545H170.859L171.721 54.8424C171.952 54.3373 172.073 53.9458 172.073 53.6743C172.073 53.3902 171.964 53.1503 171.758 52.9545C171.563 52.7714 171.029 52.6704 170.155 52.6578C169.256 52.6578 168.612 52.7588 168.236 52.9545C167.823 53.1503 167.483 53.3902 167.203 53.6743C167.009 53.87 166.802 54.1352 166.596 54.4699L156.88 74.6868C156.759 75.0214 156.698 75.2866 156.698 75.4824C156.698 75.7665 156.807 76.0064 157.026 76.2084C157.208 76.4042 157.755 76.5052 158.666 76.5052C159.589 76.4926 160.22 76.3915 160.548 76.2084C160.949 76.0064 161.289 75.7665 161.58 75.4824C161.86 75.2109 162.127 74.8257 162.358 74.3206L163.499 71.915H172.353L171.26 74.2638C170.835 75.0278 170.057 75.7791 168.94 76.5178C167.762 77.2755 166.341 77.8437 164.714 78.2415C163.195 78.6077 161.738 78.8161 160.329 78.8539H154.318C152.824 78.8539 151.452 78.6456 150.188 78.2415C148.962 77.8437 148.1 77.2755 147.626 76.5178C147.201 75.7791 147.164 75.0278 147.529 74.2638L156.807 54.8992V54.8992ZM203.552 50.5868C203.893 50.6626 204.208 50.7447 204.524 50.8457C205.751 51.2498 206.601 51.8307 207.075 52.582C207.512 53.3144 207.548 54.0595 207.22 54.8234L203.346 62.8483H191.711L205.52 46.5144L203.552 50.5868V50.5868ZM183.489 54.8234C183.963 53.9332 184.777 53.1187 185.931 52.38C187.072 51.6413 188.457 51.0983 190.072 50.751C191.687 50.4101 193.23 50.2333 194.699 50.2333H199.496L178.328 65.4938L183.489 54.8234V54.8234ZM181.886 78.8539C179.725 78.8413 178.036 78.6203 176.798 78.2036C175.547 77.7995 174.697 77.2187 174.272 76.4673C173.871 75.7223 173.834 74.9583 174.162 74.1691L178.085 66.0305H189.926L181.886 78.8539ZM203.091 63.3661L197.905 74.1691C197.31 75.3687 196.46 76.2905 195.355 76.9472C194.25 77.5975 193.023 78.0647 191.675 78.3425C190.327 78.6203 189.113 78.7656 188.044 78.7782L178.862 83.1979L203.091 63.3661V63.3661ZM213.45 72.1171L213.487 65.8095L207.257 78.7403H198.865L212.491 50.4227H220.895L220.859 64.4015L234.23 50.4227H242.634L228.996 78.7403H220.604L226.834 65.8095L220.822 72.1171L220.786 72.2875H213.28L213.45 72.1171V72.1171Z" fill="#FF6600"/>
<path fill-rule="evenodd" clip-rule="evenodd" d="M111.589 103.309L114.334 103.307L117.324 90.8022C117.837 91.7354 120.619 99.2099 121.273 100.875C121.734 102.047 121.957 103.498 123.216 103.542C124.448 103.585 124.817 102.103 125.24 100.99C125.666 99.8713 126.1 98.7354 126.553 97.5976C127.42 95.4177 128.241 92.927 129.207 90.8117L132.258 103.245L135.002 103.303C134.705 101.621 131.09 86.5331 130.745 85.8451C130.382 85.1225 129.05 84.1605 127.962 87.014C127.218 88.9653 123.78 98.1331 123.351 98.7014C122.855 97.8505 122.212 95.9452 121.822 94.9021C121.311 93.5352 118.613 86.078 117.931 85.4917C117.256 84.9109 116.357 85.1143 115.961 85.6887C115.666 86.1171 111.862 101.677 111.589 103.309V103.309Z" fill="black"/>
<path fill-rule="evenodd" clip-rule="evenodd" d="M86.4947 103.277L89.2037 103.305L89.2621 88.5006L97.6769 88.4986C99.8692 88.4986 101.022 89.5294 100.997 92.0501C100.972 94.4973 99.8306 95.5565 97.6769 95.5564L91.2995 95.556L91.3437 98.3239L97.0999 98.322C97.5165 98.5478 98.3592 99.6139 98.6592 100.028C99.1332 100.682 99.6291 101.157 100.105 101.808C100.507 102.357 100.917 103.243 101.848 103.317C102.808 103.393 104.126 103.307 105.126 103.307L100.519 97.9329C100.902 97.589 101.356 97.3818 101.71 97.0728C104.664 94.4898 104.267 88.4681 101.407 86.3945C99.5458 85.0456 96.8023 85.3632 94.3594 85.3632C92.7865 85.3632 87.6565 85.1379 86.4924 85.4535L86.4947 103.277V103.277Z" fill="black"/>
<path fill-rule="evenodd" clip-rule="evenodd" d="M65.8808 88.6214C66.7674 88.4131 70.6742 88.4123 71.641 88.5833C73.3701 88.8893 74.5235 90.0311 75.1611 91.4109C76.5127 94.3358 75.5699 99.146 71.8898 100.039C71.0075 100.254 66.9537 100.261 65.9915 100.102C60.8884 99.2549 60.1213 89.9745 65.8808 88.6214V88.6214ZM65.5994 85.4587C57.11 86.8274 57.2385 99.7871 63.8586 102.666C65.6575 103.448 70.0217 103.553 72.107 103.181C76.5828 102.383 79.7868 97.0035 78.0998 91.0303C77.4208 88.6265 75.8315 86.8335 73.8047 85.9671C72.0715 85.2263 67.5752 85.1401 65.5994 85.4587V85.4587Z" fill="#282829"/>
<path fill-rule="evenodd" clip-rule="evenodd" d="M13.4367 103.307L16.0933 103.307L16.0923 90.3006C16.8212 90.6931 20.5671 95.1985 21.3683 96.1125C23.1454 98.1399 24.8279 100.038 26.6019 102.069C30.7261 106.789 29.963 99.4627 29.963 97.078C29.963 93.152 29.966 89.2258 29.963 85.2998C29.0903 85.1264 28.1907 85.2059 27.3059 85.2318L27.3052 98.2454C26.5112 97.7494 23.001 93.616 22.0622 92.574L19.521 89.5932C18.614 88.5878 17.8093 87.704 16.9036 86.6968C16.5939 86.3522 15.9236 85.528 15.5194 85.3219C14.6574 84.8821 13.9128 85.2963 13.6402 85.947C13.228 86.9311 13.4375 101.574 13.4367 103.307V103.307Z" fill="#282829"/>
<path fill-rule="evenodd" clip-rule="evenodd" d="M65.8808 88.6214C60.1213 89.9745 60.8884 99.2549 65.9915 100.102C66.9537 100.261 71.0075 100.254 71.8898 100.039C75.5699 99.146 76.5127 94.3358 75.1611 91.4109C74.5235 90.0311 73.3701 88.8893 71.641 88.5833C70.6742 88.4123 66.7674 88.4131 65.8808 88.6214V88.6214Z" fill="white" stroke="black" stroke-width="0.0762" stroke-miterlimit="22.9256"/>
<path fill-rule="evenodd" clip-rule="evenodd" d="M141.588 103.309L144.77 103.307L151.884 89.6318C152.216 89.9394 155.226 95.5629 155.425 96.2472L150.544 96.2478C150.282 96.9913 149.489 98.1291 149.371 98.7902L156.67 98.7915C157.632 99.4982 158.521 102.806 159.41 103.307L162.501 103.307C162.101 102.083 160.688 99.7781 160.01 98.5136L153.78 86.8633C151.658 82.8785 150.539 86.4043 149.065 89.1767L142.84 100.83C142.482 101.498 141.82 102.559 141.588 103.309V103.309Z" fill="black"/>
<path fill-rule="evenodd" clip-rule="evenodd" d="M223.137 103.307C226.782 103.307 226.034 103.722 227.104 101.672L232.997 90.4561C233.242 89.9768 233.286 89.8857 233.562 89.6046L237.02 96.2108L232.094 96.2508C231.835 97.0027 231.222 98.0279 230.896 98.763L238.164 98.7929C238.67 98.9221 239.313 100.556 239.56 101.023C239.787 101.454 239.983 101.814 240.204 102.247C240.832 103.482 240.436 103.448 244.05 103.282C243.661 102.191 239.956 95.5637 239.095 93.9256L235.362 86.9266C234.921 86.1003 234.662 85.1826 233.671 85.1293C232.413 85.0617 231.602 87.3243 230.648 89.1141L225.666 98.4346C225.236 99.2386 224.852 99.9594 224.421 100.765C223.993 101.566 223.43 102.467 223.137 103.307V103.307Z" fill="black"/>
<path fill-rule="evenodd" clip-rule="evenodd" d="M216.171 103.307L216.166 100.171C213.622 100.172 209.055 100.473 206.759 100.114C201.229 99.2493 201.091 89.4157 206.766 88.5585C209.277 88.1794 214.069 88.9665 216.171 88.4117L216.171 85.4576C215.245 85.1927 211.412 85.3632 210.182 85.3632C208.237 85.3632 206.34 85.2162 204.595 85.9267C198.137 88.5571 198.225 99.5278 204.416 102.59C206.817 103.778 213.115 103.305 216.171 103.307V103.307Z" fill="black" stroke="black" stroke-width="0.0762" stroke-miterlimit="22.9256"/>
<path fill-rule="evenodd" clip-rule="evenodd" d="M166.221 88.4585L172.259 88.5013L172.283 103.294L175.019 103.302L175.07 88.4993L181.125 88.4877L181.125 85.4525C180.143 85.1898 167.697 85.2332 166.221 85.4064L166.221 88.4585V88.4585Z" fill="black"/>
<path fill-rule="evenodd" clip-rule="evenodd" d="M38.3662 103.308L40.559 103.307L41.1332 103.303L41.1342 88.4989L51.9091 88.4935L51.9094 85.4244L51.3779 85.3509L38.3662 85.3632V103.308Z" fill="#282829"/>
<path fill-rule="evenodd" clip-rule="evenodd" d="M188.827 103.307H191.613L191.614 85.363L188.826 85.3629L188.827 103.307Z" fill="black"/>
<path fill-rule="evenodd" clip-rule="evenodd" d="M2.09362 103.289L4.82392 103.304L4.88122 85.4358L2.09012 85.3699L2.09362 103.289Z" fill="#282829"/>
<path fill-rule="evenodd" clip-rule="evenodd" d="M43.1867 95.8667L51.1862 95.8794L51.2623 95.2952L51.2496 93.1366L43.1723 93.1401L43.1867 95.8667Z" fill="#282829"/>
<path fill-rule="evenodd" clip-rule="evenodd" d="M149.914 82.8383L149.902 84.2321L155.466 82.903L155.512 81.2936H154.557L149.914 82.8383Z" fill="black" stroke="black" stroke-width="0.0762" stroke-miterlimit="22.9256"/>
<path fill-rule="evenodd" clip-rule="evenodd" d="M15.6257 88.7736L15.9606 88.9491C15.96 88.9484 15.9594 88.9478 15.9588 88.9471C15.8675 88.8484 15.7551 88.7177 15.6347 88.5804C15.6315 88.6448 15.6286 88.7092 15.6257 88.7736V88.7736ZM28.5659 101.745C28.5935 101.776 28.6212 101.807 28.6488 101.838C28.7083 101.904 28.7979 102.002 28.9025 102.11C28.9063 102.06 28.9098 102.009 28.9131 101.957L28.5659 101.745V101.745Z" fill="#F37235"/>
<path fill-rule="evenodd" clip-rule="evenodd" d="M76.9144 38.3215C78.3294 38.6171 79.7015 38.9702 81.0995 39.3284C81.6436 39.4678 82.474 39.7022 83.0341 39.5947C83.5775 39.4905 84.0036 39.042 84.3661 38.6544C85.18 37.784 85.9461 36.8845 86.7768 36.0223C89.3911 33.3089 92.2323 30.8075 95.4251 28.7919C110.22 19.4524 127.672 19.4187 142.536 28.6156C147.276 31.5479 156.012 39.3853 157.84 44.6751L157.851 44.7078L157.817 44.7088C156.764 44.7385 155.878 44.5101 155.056 43.8451C154.222 43.17 153.493 42.1093 152.858 41.2457C151.81 39.8187 150.759 38.4794 149.54 37.1892C147.688 35.2308 145.611 33.5026 143.418 31.9412C138.757 28.6235 133.574 26.1818 127.977 24.9471C122.884 23.8236 117.646 23.7513 112.519 24.6909C102.242 26.5739 93.0097 32.3582 86.1838 40.1815C87.2305 40.7608 88.5824 41.1296 89.7388 41.4083C91.2943 41.7832 92.8803 42.0658 94.4545 42.3511C96.0536 42.6409 97.6614 42.9256 99.2441 43.2958C100.498 43.5891 101.902 43.9624 103.053 44.5467L103.146 44.5943L58.2934 44.7674L58.2981 44.7379C58.5918 42.9023 59.46 40.8949 60.2706 39.2307C61.3299 37.0559 62.5717 34.9406 63.8645 32.8969C65.1203 30.9118 66.4488 28.9654 67.8305 27.0657C68.8139 25.7136 69.8381 24.3446 70.9195 23.0688C77.4782 15.3315 85.6511 9.24329 95.0264 5.34779C103.846 1.68329 113.485 0.0952955 123.014 0.695896C143.222 1.9696 161.124 12.6775 172.302 29.4879C172.682 30.0595 173.027 30.6425 173.393 31.2209C173.594 31.5377 173.815 31.874 174.122 32.0975C174.449 32.3353 174.87 32.4447 175.259 32.5279C176.017 32.69 176.813 32.7936 177.581 32.9134L234.27 42.9162C236.083 43.2362 239.814 43.6648 241.284 44.6289L241.355 44.6754L165.574 44.7589L165.567 44.7446C159.451 32.0949 148.593 22.2025 135.318 17.5313C122.069 12.8694 107.773 13.9056 95.4672 20.821C90.3991 23.6691 78.3759 32.6115 76.9144 38.3215V38.3215Z" fill="#E7843A"/>
<path fill-rule="evenodd" clip-rule="evenodd" d="M76.8833 38.341C78.2751 32.792 89.9375 23.8993 95.4548 20.7989C120.999 6.4445 152.856 18.3976 165.59 44.7335L241.27 44.6501C239.844 43.7145 236.07 43.269 234.265 42.9412L177.577 32.9385C173.355 32.279 174.312 32.5558 172.281 29.502C148.513 -6.2394 98.4468 -9.3661 70.9389 23.0852C67.962 26.5973 59.3132 38.5551 58.3232 44.7419L103.041 44.5693C99.0974 42.5669 89.7074 42.1834 86.144 40.1884C100.155 24.1101 123.357 17.6293 143.433 31.9205C154.215 39.596 153.046 44.8179 157.816 44.6834C156.003 39.4368 147.307 31.5971 142.523 28.6372C127.713 19.4742 110.271 19.45 95.4387 28.8134C92.109 30.9155 89.2547 33.4872 86.7951 36.0399C82.1316 40.8802 84.7459 39.9787 76.8833 38.341V38.341Z" fill="black"/>
<path fill-rule="evenodd" clip-rule="evenodd" d="M166.222 113.127C164.817 112.831 163.456 112.478 162.069 112.12C161.53 111.981 160.706 111.746 160.15 111.854C159.61 111.958 159.187 112.408 158.829 112.794C158.021 113.664 157.261 114.564 156.437 115.426C153.845 118.137 151.027 120.639 147.856 122.656C133.178 131.996 115.863 132.03 101.114 122.833C96.3965 119.891 87.7409 112.055 85.9299 106.773L85.9187 106.741L85.9532 106.74C87.0004 106.71 87.878 106.939 88.6921 107.603C89.5204 108.279 90.2442 109.34 90.873 110.203C91.9128 111.629 92.9551 112.968 94.1658 114.259C96.0012 116.216 98.0616 117.945 100.24 119.507C104.858 122.821 110 125.265 115.56 126.501C120.612 127.625 125.809 127.697 130.896 126.757C141.115 124.87 150.269 119.071 157.025 111.267C155.987 110.688 154.645 110.319 153.498 110.04C151.955 109.665 150.381 109.383 148.819 109.097C147.232 108.808 145.637 108.523 144.067 108.153C142.823 107.859 141.429 107.485 140.288 106.902L140.195 106.854L184.697 106.681L184.692 106.71C184.401 108.546 183.54 110.551 182.735 112.218C181.685 114.392 180.453 116.507 179.17 118.551C177.924 120.536 176.606 122.482 175.235 124.383C174.259 125.734 173.243 127.103 172.17 128.379C165.674 136.103 157.57 142.198 148.252 146.101C139.508 149.762 129.941 151.353 120.483 150.752C100.372 149.475 82.6367 138.717 71.581 121.96C71.2038 121.389 70.8619 120.806 70.4987 120.227C70.3002 119.911 70.0801 119.575 69.7752 119.351C69.4516 119.113 69.0342 119.004 68.6475 118.92C67.8954 118.758 67.1054 118.655 66.3442 118.535L10.0994 108.532C8.29881 108.212 4.59711 107.783 3.14031 106.819L3.07001 106.773L78.2572 106.689L78.2641 106.704C84.3136 119.314 95.0649 129.232 108.276 133.917C121.427 138.581 135.61 137.54 147.814 130.627C152.863 127.768 164.774 118.829 166.222 113.127V113.127Z" fill="#282829" stroke="#FEFEFE" stroke-width="0.0762" stroke-miterlimit="22.9256"/>
<path fill-rule="evenodd" clip-rule="evenodd" d="M166.253 113.107C164.872 118.656 153.301 127.549 147.827 130.649C122.482 145.004 90.8751 133.051 78.2412 106.715L3.1543 106.798C4.5693 107.734 8.3137 108.179 10.1038 108.507L66.3484 118.51C70.5365 119.169 69.5874 118.893 71.6022 121.946C95.184 157.688 144.858 160.814 172.15 128.363C175.104 124.851 183.685 112.893 184.667 106.706L140.3 106.879C144.213 108.881 153.529 109.265 157.064 111.26C143.163 127.338 120.143 133.819 100.225 119.528C89.5267 111.852 90.687 106.63 85.9539 106.765C87.753 112.012 96.3807 119.851 101.127 122.811C115.821 131.974 133.126 131.998 147.842 122.635C151.146 120.533 153.978 117.961 156.418 115.408C161.045 110.568 158.452 111.47 166.253 113.107V113.107Z" fill="#FF6600" stroke="#FF6600" stroke-width="0.0762" stroke-miterlimit="22.9256"/>
</svg>
