<svg width="245" height="60" viewBox="0 0 245 60" fill="none" xmlns="http://www.w3.org/2000/svg">
<path fill-rule="evenodd" clip-rule="evenodd" d="M180.55 36.1267C179.141 36.0574 177.682 35.8722 176.388 35.4455C175.103 35.022 173.821 34.3268 173.133 33.111L173.12 33.0869C172.582 32.0862 172.493 31.0026 172.849 29.9478L172.425 30.8583L172.402 30.8995C171.777 32.0237 170.719 32.9194 169.654 33.6133C168.252 34.5275 166.642 35.1188 165.022 35.5123C163.496 35.883 161.936 36.119 160.364 36.1611L160.347 36.1616H154.318C152.78 36.1616 151.253 35.9584 149.788 35.4862C148.501 35.0718 147.252 34.3868 146.517 33.2109L146.504 33.1908L146.493 33.1702C145.856 32.0641 145.797 30.8522 146.349 29.6987L155.638 10.3127L155.649 10.2916C156.254 9.13989 157.342 8.23098 158.42 7.53858C159.815 6.64278 161.4 6.04849 163.003 5.65199C164.643 5.24669 166.326 5.00128 168.017 5.00128H174.046L174.064 5.00179C175.478 5.04009 176.891 5.24498 178.24 5.67568C179.531 6.08788 180.785 6.76198 181.539 7.92858L181.567 7.97088L181.591 8.01518C182.182 9.10598 182.238 10.2955 181.733 11.4309L181.507 11.9187L182.323 10.2314L182.335 10.2092C182.99 8.97828 184.064 8.02628 185.223 7.28038C186.613 6.38558 188.188 5.81529 189.799 5.47199C191.409 5.12919 193.053 4.92558 194.699 4.92558H201.769L205.266 0.789886L207.199 2.04538L205.399 5.76998C206.507 6.19988 207.535 6.86019 208.181 7.88449L208.197 7.91159C208.843 8.99309 208.918 10.1838 208.422 11.3392L208.41 11.3658L204.167 20.156H204.162L199.077 30.7502C198.382 32.1511 197.367 33.2767 196.02 34.0728C194.755 34.8212 193.377 35.3269 191.939 35.6233C190.766 35.865 189.556 36.0418 188.356 36.0794L178.383 40.8798L177.136 38.9214L180.55 36.1267V36.1267ZM184.826 32.6262L200.061 20.156H188.894L198.996 8.20598L181.634 20.7228H192.289L184.826 32.6262ZM174.937 25.5507L174.9 25.577L180.518 13.9622H168.788L170.536 10.2899C170.568 10.2197 170.62 10.1035 170.667 9.98389C170.472 9.96919 170.266 9.96628 170.145 9.96548C169.861 9.96338 169.096 9.98089 168.839 10.1147L168.818 10.1258L168.796 10.1361C168.551 10.2523 168.325 10.3993 168.134 10.5929C167.988 10.7413 167.856 10.9232 167.744 11.1013L158.092 31.1838C158.3 31.1984 158.528 31.1984 158.657 31.1975C158.933 31.1956 159.66 31.1759 159.919 31.062L159.935 31.0531L159.959 31.0406C160.22 30.9094 160.459 30.749 160.668 30.5453C160.879 30.3404 161.047 30.0415 161.168 29.7769L162.672 26.6073H174.404L173.742 28.0289L174.937 25.5507V25.5507ZM133.1 31.1432C133.469 30.623 133.973 30.2044 134.511 29.8617C135.308 29.354 136.201 29.0079 137.114 28.7755C138.069 28.5325 139.038 28.4005 140.023 28.4005C140.916 28.4005 141.804 28.5217 142.653 28.8002C143.476 29.0701 144.262 29.5216 144.729 30.275L144.74 30.2916L144.749 30.3086C145.202 31.0898 145.219 31.958 144.842 32.7747L144.835 32.7909L144.827 32.8069C144.446 33.5781 143.773 34.1559 143.051 34.5987C142.243 35.094 141.349 35.4377 140.433 35.6725C139.505 35.9103 138.553 36.048 137.594 36.048C136.702 36.048 135.814 35.9268 134.964 35.6483C134.139 35.3776 133.349 34.9203 132.89 34.1569C132.515 33.5321 132.423 32.8462 132.602 32.1789L130.741 36.048H118.269L124.004 24.1164C123.935 24.1151 123.866 24.1148 123.798 24.1148C123.463 24.1148 122.972 24.1141 122.646 24.1924L122.615 24.1993C122.536 24.2163 122.37 24.2548 122.301 24.3002L122.261 24.3326L122.214 24.3635C122.206 24.369 122.197 24.375 122.188 24.3813L116.58 36.048H77.5299L79.8859 31.1779C79.2588 32.1112 78.3432 32.862 77.4152 33.4677C76.0268 34.3739 74.4561 34.9744 72.8535 35.3772C71.1944 35.7941 69.4871 36.048 67.7741 36.048H50.9625L64.7888 7.29558L47.8419 26.9155L43.4307 36.048H32.0613L36.9955 25.8327L39.0063 5.11498H49.0319L48.1634 13.9609L55.8211 5.11498H65.8375L65.8466 5.09599H81.6978L81.7157 5.09648C83.1237 5.13498 84.523 5.30629 85.889 5.65429L85.9267 5.66389L85.9637 5.67568C87.2482 6.08558 88.498 6.77219 89.2349 7.94159L89.2489 7.96378L89.262 7.98648C89.8985 9.09248 89.9573 10.3102 89.4054 11.4636L87.8135 14.7909L92.4944 5.11498H134.84L134.855 5.11528C136.285 5.14798 137.703 5.35008 139.069 5.78188C140.361 6.19018 141.624 6.88918 142.329 8.09058C142.964 9.17288 143.044 10.3696 142.549 11.5224L142.538 11.5481L138.956 18.9969L138.943 19.0202C138.328 20.1779 137.262 21.0761 136.171 21.77C135.942 21.916 135.707 22.0539 135.468 22.1844C135.47 22.1869 135.471 22.1893 135.473 22.1918L135.506 22.2384L135.534 22.2876C136.166 23.386 136.228 24.5893 135.697 25.7413L133.1 31.1432V31.1432ZM115.759 11.8344H101.643L99.3756 16.562H110.329L106.915 23.6918H95.9482L93.2522 29.3286H107.341L115.759 11.8344V11.8344ZM86.919 16.6399C86.3151 17.7199 85.3109 18.575 84.2897 19.2422C83.9976 19.4331 83.6974 19.6105 83.3904 19.7752C83.4197 19.8194 83.4483 19.8642 83.4761 19.9096C84.0632 20.8713 84.1984 21.9226 83.8629 22.9571L86.919 16.6399ZM25.3795 9.98389C25.1842 9.96919 24.9781 9.96628 24.8574 9.96548C24.573 9.96338 23.8085 9.98089 23.551 10.1147L23.5297 10.1258L23.508 10.1361C23.263 10.2523 23.0373 10.3993 22.8463 10.5929C22.6997 10.7413 22.5685 10.9233 22.4556 11.1014L12.8043 31.1838C13.0124 31.1984 13.2397 31.1984 13.3687 31.1975C13.6449 31.1956 14.3726 31.1759 14.6309 31.062L14.6468 31.0531L14.6716 31.0406C14.9318 30.9095 15.171 30.749 15.3802 30.5454C15.5908 30.3404 15.7595 30.0415 15.8805 29.7769L17.3844 26.6073H29.1159L27.1374 30.8583L27.1145 30.8995C26.4891 32.0238 25.4307 32.9194 24.3663 33.6133C22.964 34.5274 21.3545 35.1188 19.7344 35.5123C18.208 35.883 16.6482 36.119 15.0766 36.1611L15.059 36.1616H9.02991C7.49241 36.1616 5.96551 35.9584 4.49971 35.4862C3.21301 35.0718 1.96411 34.3868 1.22921 33.2108L1.21671 33.1907L1.20481 33.1702C0.568212 32.0641 0.509013 30.8522 1.06171 29.6987L10.3504 10.3127L10.3614 10.2916C10.9657 9.13989 12.0545 8.23098 13.1324 7.53858C14.5267 6.64278 16.1119 6.04849 17.7152 5.65199C19.3546 5.24669 21.0383 5.00128 22.7291 5.00128H28.7585L28.7763 5.00179C30.19 5.04009 31.6027 5.24498 32.9519 5.67578C34.2429 6.08788 35.4968 6.76198 36.2513 7.92858L36.2786 7.97088L36.3026 8.01508C36.8945 9.10588 36.9505 10.2956 36.4451 11.431L35.272 13.9622H23.5006L25.2482 10.2899C25.2802 10.2197 25.3326 10.1035 25.3795 9.98389V9.98389ZM211.187 29.5952L208.078 36.048H196.784L211.669 5.11498H222.206L222.175 17.1336L233.671 5.11498H244.716L229.818 36.048H218.522L221.631 29.5952H211.187V29.5952ZM222.013 28.8019L222.052 28.7227L222.024 28.7515L222.013 28.8019ZM66.6106 29.4738H66.8146C67.1231 29.4738 67.6322 29.4735 67.9309 29.3928L67.9556 29.3864C68.1091 29.3481 68.2644 29.2935 68.4068 29.221C68.4082 29.2198 68.4095 29.2187 68.4109 29.2175L71.2571 23.2828C71.2382 23.2826 71.2194 23.2824 71.201 23.2821C70.6649 23.2737 70.1284 23.2706 69.5919 23.2695L66.6106 29.4738ZM76.7375 11.9256C76.6996 11.9249 76.6627 11.9241 76.627 11.9232C76.1067 11.9093 75.5857 11.9019 75.0648 11.8971L72.8099 16.5621H73.0328C73.3687 16.5558 73.8597 16.5531 74.2052 16.4822C74.3425 16.446 74.4778 16.3861 74.6001 16.3136C74.6056 16.3096 74.6111 16.3056 74.6165 16.3015L76.7375 11.9256V11.9256ZM125.823 16.8395C126.328 16.7507 126.837 16.6602 127.338 16.553C127.448 16.5294 127.567 16.4911 127.66 16.4241L127.7 16.3953C127.769 16.2885 127.841 16.1328 127.885 16.0387L129.905 11.8376C129.829 11.8362 129.759 11.8354 129.7 11.8343L128.217 11.8344L125.823 16.8395V16.8395Z" fill="#282829"/>
<path d="M11.5194 10.8992C11.9203 10.1352 12.6976 9.37759 13.8392 8.63879C15.0171 7.88749 16.4259 7.31289 18.0291 6.92149C19.6685 6.51109 21.2353 6.30899 22.7291 6.30899H28.7408C30.1375 6.34689 31.4126 6.54899 32.5542 6.92149C33.8052 7.31289 34.6673 7.88749 35.1532 8.63879C35.5541 9.37759 35.5905 10.1352 35.2504 10.8992L34.4368 12.6545H25.5711L26.4334 10.8424C26.664 10.3373 26.7856 9.94579 26.7856 9.67429C26.7856 9.39019 26.6761 9.15029 26.4698 8.95449C26.2755 8.77139 25.7412 8.67039 24.8667 8.65779C23.9678 8.65779 23.3242 8.75879 22.9478 8.95449C22.5348 9.15029 22.1947 9.39019 21.9155 9.67429C21.7212 9.86999 21.5146 10.1352 21.3082 10.4699L11.5923 30.6868C11.471 31.0214 11.4102 31.2866 11.4102 31.4824C11.4102 31.7665 11.5194 32.0064 11.7381 32.2084C11.9203 32.4042 12.4667 32.5052 13.3777 32.5052C14.3007 32.4926 14.9322 32.3915 15.2601 32.2084C15.6609 32.0064 16.001 31.7665 16.2924 31.4824C16.5717 31.2109 16.8389 30.8257 17.0698 30.3206L18.2113 27.915H27.0649L25.9717 30.2638C25.5467 31.0278 24.7695 31.7791 23.6522 32.5178C22.474 33.2755 21.0531 33.8437 19.4258 34.2415C17.9076 34.6077 16.4504 34.8161 15.0415 34.8539H9.02992C7.53612 34.8539 6.16362 34.6456 4.90062 34.2415C3.67402 33.8437 2.81172 33.2755 2.33822 32.5178C1.91302 31.7791 1.87652 31.0278 2.24102 30.2638L11.5194 10.8992V10.8992ZM46.7394 26.1913L42.6101 34.7403H34.1452L38.2745 26.1913L40.1932 6.42269H47.5895L46.46 17.9265L56.4187 6.42269H63.8149L46.7394 26.1913V26.1913ZM66.6688 6.40369H81.6799C83.0643 6.44159 84.3516 6.61209 85.5662 6.92149C86.7928 7.31289 87.6551 7.88749 88.1286 8.63879C88.5538 9.37759 88.5901 10.1352 88.2258 10.8992L85.8454 15.8745C85.4448 16.6637 84.6796 17.4214 83.5744 18.1475C82.8336 18.6274 81.9956 19.0441 81.0482 19.385C81.6434 19.7197 82.0806 20.1237 82.3599 20.591C82.8092 21.3171 82.8578 22.0684 82.5057 22.845L79.0201 30.0807C78.6073 30.8699 77.8421 31.6339 76.7005 32.3726C75.5589 33.124 74.1744 33.7048 72.5348 34.1089C70.883 34.5319 69.2921 34.7403 67.7741 34.7403H53.0424L66.6688 6.40369V6.40369ZM64.5314 30.7815H66.8146C67.4827 30.7815 67.9683 30.7373 68.2721 30.6552C68.5756 30.5795 68.867 30.4658 69.1221 30.3206C69.3408 30.1564 69.4866 30.0112 69.5472 29.8723L72.9356 22.8071C73.0085 22.6745 73.0085 22.5293 72.9356 22.3841C72.8627 22.2262 72.6927 22.1063 72.4377 22.0305C72.2192 21.98 71.0046 21.9611 68.7698 21.9611L64.5314 30.7815V30.7815ZM78.4128 11.4674C78.4615 11.3349 78.4493 11.196 78.3764 11.0444C78.3278 10.8866 78.1577 10.7666 77.8785 10.6908C77.66 10.634 76.4576 10.5961 74.2473 10.5835L70.7254 17.8697H73.0449C73.725 17.8571 74.2107 17.8192 74.5023 17.756C74.7816 17.6866 75.0609 17.5666 75.3159 17.4088C75.5346 17.2572 75.6682 17.1183 75.7411 16.9794L78.4128 11.4674V11.4674ZM91.1771 30.6363H105.338L103.346 34.7403H79.6152L93.3145 6.42269H116.973L114.981 10.5267H100.82L97.2981 17.8697H108.253L106.091 22.3841H95.1241L91.1771 30.6363V30.6363ZM124.624 22.845C124.405 22.8198 124.138 22.8071 123.798 22.8071C123.142 22.8071 122.656 22.845 122.341 22.9208C121.988 22.9965 121.697 23.1102 121.491 23.2743C121.272 23.4196 121.126 23.5585 121.065 23.6974L115.758 34.7403H106.188L119.814 6.42269H134.825C136.21 6.45429 137.485 6.66259 138.675 7.02879C139.902 7.42659 140.752 8.00109 141.201 8.75249C141.626 9.49119 141.675 10.2426 141.347 11.0065L137.789 18.4064C137.376 19.183 136.611 19.9343 135.469 20.6667C134.765 21.1087 133.987 21.4875 133.162 21.8095C133.684 22.1315 134.097 22.5041 134.4 22.9397C134.825 23.6784 134.862 24.4298 134.51 25.1938L129.919 34.7403H120.349L125.656 23.6974C125.717 23.5585 125.717 23.4196 125.656 23.2743C125.583 23.1102 125.413 22.9965 125.158 22.9208C125.134 22.9208 125.122 22.9145 125.122 22.9018C124.952 22.8892 124.782 22.8703 124.624 22.845V22.845ZM123.446 18.7789C123.822 18.6526 124.211 18.5453 124.624 18.4443C125.073 18.3306 125.51 18.2422 125.935 18.1664V18.1475C126.761 18.0023 127.32 17.8949 127.611 17.8318C127.939 17.7624 128.206 17.6424 128.425 17.4845C128.619 17.4088 128.826 17.112 129.069 16.5943L131.558 11.4169C131.631 11.278 131.631 11.1391 131.558 10.9876C131.485 10.8297 131.316 10.7098 131.061 10.6403C130.842 10.5772 130.392 10.5393 129.712 10.5267H127.393L123.446 18.7789V18.7789ZM137.594 34.7403C136.793 34.7403 136.052 34.6267 135.372 34.4057C134.704 34.1847 134.242 33.8753 134.012 33.4838C133.769 33.0861 133.757 32.6694 133.975 32.2274C134.182 31.7791 134.595 31.3624 135.214 30.9646C135.833 30.5732 136.574 30.2638 137.436 30.0428C138.311 29.8218 139.161 29.7082 140.023 29.7082C140.825 29.7082 141.566 29.8218 142.246 30.0428C142.914 30.2638 143.375 30.5732 143.618 30.9646C143.849 31.3624 143.861 31.7791 143.655 32.2274C143.436 32.6694 143.011 33.0861 142.367 33.4838C141.724 33.8753 140.971 34.1847 140.108 34.4057C139.246 34.6267 138.408 34.7403 137.594 34.7403V34.7403ZM156.807 10.8992C157.208 10.1352 157.985 9.37759 159.127 8.63879C160.305 7.88749 161.714 7.31289 163.317 6.92149C164.957 6.51109 166.523 6.30899 168.017 6.30899H174.029C175.425 6.34689 176.7 6.54899 177.842 6.92149C179.093 7.31289 179.955 7.88749 180.441 8.63879C180.842 9.37759 180.878 10.1352 180.538 10.8992L179.725 12.6545H170.859L171.721 10.8424C171.952 10.3373 172.073 9.94579 172.073 9.67429C172.073 9.39019 171.964 9.15029 171.758 8.95449C171.563 8.77139 171.029 8.67039 170.155 8.65779C169.256 8.65779 168.612 8.75879 168.236 8.95449C167.823 9.15029 167.483 9.39019 167.203 9.67429C167.009 9.86999 166.802 10.1352 166.596 10.4699L156.88 30.6868C156.759 31.0214 156.698 31.2866 156.698 31.4824C156.698 31.7665 156.807 32.0064 157.026 32.2084C157.208 32.4042 157.755 32.5052 158.666 32.5052C159.589 32.4926 160.22 32.3915 160.548 32.2084C160.949 32.0064 161.289 31.7665 161.58 31.4824C161.86 31.2109 162.127 30.8257 162.358 30.3206L163.499 27.915H172.353L171.26 30.2638C170.835 31.0278 170.057 31.7791 168.94 32.5178C167.762 33.2755 166.341 33.8437 164.714 34.2415C163.195 34.6077 161.738 34.8161 160.329 34.8539H154.318C152.824 34.8539 151.452 34.6456 150.188 34.2415C148.962 33.8437 148.1 33.2755 147.626 32.5178C147.201 31.7791 147.164 31.0278 147.529 30.2638L156.807 10.8992V10.8992ZM203.552 6.58679C203.893 6.66259 204.208 6.74469 204.524 6.84569C205.751 7.24979 206.601 7.83069 207.075 8.58199C207.512 9.31439 207.548 10.0595 207.22 10.8234L203.346 18.8483H191.711L205.52 2.51439L203.552 6.58679V6.58679ZM183.489 10.8234C183.963 9.93319 184.777 9.11869 185.931 8.37999C187.072 7.64129 188.457 7.09829 190.072 6.75099C191.687 6.41009 193.23 6.23329 194.699 6.23329H199.496L178.328 21.4938L183.489 10.8234V10.8234ZM181.886 34.8539C179.725 34.8413 178.036 34.6203 176.798 34.2036C175.547 33.7995 174.697 33.2187 174.272 32.4673C173.871 31.7223 173.834 30.9583 174.162 30.1691L178.085 22.0305H189.926L181.886 34.8539ZM203.091 19.3661L197.905 30.1691C197.31 31.3687 196.46 32.2905 195.355 32.9472C194.25 33.5975 193.023 34.0647 191.675 34.3425C190.327 34.6203 189.113 34.7656 188.044 34.7782L178.862 39.1979L203.091 19.3661V19.3661ZM213.45 28.1171L213.487 21.8095L207.257 34.7403H198.865L212.491 6.42269H220.895L220.859 20.4015L234.23 6.42269H242.634L228.996 34.7403H220.604L226.834 21.8095L220.822 28.1171L220.786 28.2875H213.28L213.45 28.1171V28.1171Z" fill="#FF6600"/>
<path fill-rule="evenodd" clip-rule="evenodd" d="M111.589 59.3086L114.334 59.3072L117.324 46.8022C117.837 47.7354 120.619 55.2099 121.273 56.8753C121.734 58.0471 121.957 59.4979 123.216 59.5421C124.448 59.5853 124.817 58.1034 125.24 56.99C125.666 55.8713 126.1 54.7354 126.553 53.5976C127.42 51.4177 128.241 48.927 129.207 46.8117L132.258 59.2449L135.002 59.3033C134.705 57.6214 131.09 42.5331 130.745 41.8451C130.382 41.1225 129.05 40.1605 127.962 43.014C127.218 44.9653 123.78 54.1331 123.351 54.7014C122.855 53.8505 122.212 51.9452 121.822 50.9021C121.311 49.5352 118.613 42.078 117.931 41.4917C117.256 40.9109 116.357 41.1143 115.961 41.6887C115.666 42.1171 111.862 57.6768 111.589 59.3086V59.3086Z" fill="black"/>
<path fill-rule="evenodd" clip-rule="evenodd" d="M86.4947 59.2774L89.2037 59.3053L89.2621 44.5006L97.6769 44.4986C99.8692 44.4986 101.022 45.5294 100.997 48.0501C100.972 50.4973 99.8306 51.5565 97.6769 51.5564L91.2995 51.556L91.3437 54.3239L97.0999 54.322C97.5165 54.5478 98.3592 55.6139 98.6592 56.0278C99.1332 56.6819 99.6291 57.1572 100.105 57.8082C100.507 58.3575 100.917 59.2426 101.848 59.3168C102.808 59.3932 104.126 59.3072 105.126 59.3075L100.519 53.9329C100.902 53.589 101.356 53.3818 101.71 53.0728C104.664 50.4898 104.267 44.4681 101.407 42.3945C99.5458 41.0456 96.8023 41.3632 94.3594 41.3632C92.7865 41.3632 87.6565 41.1379 86.4924 41.4535L86.4947 59.2774V59.2774Z" fill="black"/>
<path fill-rule="evenodd" clip-rule="evenodd" d="M65.8808 44.6214C66.7674 44.4131 70.6742 44.4123 71.641 44.5833C73.3701 44.8893 74.5235 46.0311 75.1611 47.4109C76.5127 50.3358 75.5699 55.146 71.8898 56.0395C71.0075 56.2537 66.9537 56.2615 65.9915 56.1018C60.8884 55.2549 60.1213 45.9745 65.8808 44.6214V44.6214ZM65.5994 41.4587C57.11 42.8274 57.2385 55.7871 63.8586 58.6656C65.6575 59.4477 70.0217 59.5526 72.107 59.181C76.5828 58.3834 79.7868 53.0035 78.0998 47.0303C77.4208 44.6265 75.8315 42.8335 73.8047 41.9671C72.0715 41.2263 67.5752 41.1401 65.5994 41.4587V41.4587Z" fill="#282829"/>
<path fill-rule="evenodd" clip-rule="evenodd" d="M13.4367 59.3073L16.0933 59.3074L16.0923 46.3006C16.8212 46.6931 20.5671 51.1985 21.3683 52.1125C23.1454 54.1399 24.8279 56.0383 26.6019 58.0688C30.7261 62.7891 29.963 55.4627 29.963 53.078C29.963 49.152 29.966 45.2258 29.963 41.2998C29.0903 41.1264 28.1907 41.2059 27.3059 41.2318L27.3052 54.2454C26.5112 53.7494 23.001 49.616 22.0622 48.574L19.521 45.5932C18.614 44.5878 17.8093 43.704 16.9036 42.6968C16.5939 42.3522 15.9236 41.528 15.5194 41.3219C14.6574 40.8821 13.9128 41.2963 13.6402 41.947C13.228 42.9311 13.4375 57.574 13.4367 59.3073V59.3073Z" fill="#282829"/>
<path fill-rule="evenodd" clip-rule="evenodd" d="M65.8808 44.6214C60.1213 45.9745 60.8884 55.2549 65.9915 56.1018C66.9537 56.2615 71.0075 56.2537 71.8898 56.0395C75.5699 55.146 76.5127 50.3358 75.1611 47.4109C74.5235 46.0311 73.3701 44.8893 71.641 44.5833C70.6742 44.4123 66.7674 44.4131 65.8808 44.6214V44.6214Z" fill="white" stroke="black" stroke-width="0.0762" stroke-miterlimit="22.9256"/>
<path fill-rule="evenodd" clip-rule="evenodd" d="M141.588 59.3086L144.77 59.3072L151.884 45.6318C152.216 45.9394 155.226 51.5629 155.425 52.2472L150.544 52.2478C150.282 52.9913 149.489 54.1291 149.371 54.7902L156.67 54.7915C157.632 55.4982 158.521 58.8063 159.41 59.3073L162.501 59.3074C162.101 58.0831 160.688 55.7781 160.01 54.5136L153.78 42.8633C151.658 38.8785 150.539 42.4043 149.065 45.1767L142.84 56.8296C142.482 57.4981 141.82 58.5593 141.588 59.3086V59.3086Z" fill="black"/>
<path fill-rule="evenodd" clip-rule="evenodd" d="M223.137 59.3069C226.782 59.3073 226.034 59.7218 227.104 57.6721L232.997 46.4561C233.242 45.9768 233.286 45.8857 233.562 45.6046L237.02 52.2108L232.094 52.2508C231.835 53.0027 231.222 54.0279 230.896 54.763L238.164 54.7929C238.67 54.9221 239.313 56.5561 239.56 57.0231C239.787 57.4536 239.983 57.8137 240.204 58.2467C240.832 59.4822 240.436 59.4484 244.05 59.2821C243.661 58.1908 239.956 51.5637 239.095 49.9256L235.362 42.9266C234.921 42.1003 234.662 41.1826 233.671 41.1293C232.413 41.0617 231.602 43.3243 230.648 45.1141L225.666 54.4346C225.236 55.2386 224.852 55.9594 224.421 56.7652C223.993 57.5658 223.43 58.4673 223.137 59.3069V59.3069Z" fill="black"/>
<path fill-rule="evenodd" clip-rule="evenodd" d="M216.171 59.3073L216.166 56.1715C213.622 56.1719 209.055 56.4735 206.759 56.1144C201.229 55.2493 201.091 45.4157 206.766 44.5585C209.277 44.1794 214.069 44.9665 216.171 44.4117L216.171 41.4576C215.245 41.1927 211.412 41.3632 210.182 41.3632C208.237 41.3632 206.34 41.2162 204.595 41.9267C198.137 44.5571 198.225 55.5278 204.416 58.5903C206.817 59.7781 213.115 59.3048 216.171 59.3073V59.3073Z" fill="black" stroke="black" stroke-width="0.0762" stroke-miterlimit="22.9256"/>
<path fill-rule="evenodd" clip-rule="evenodd" d="M166.221 44.4585L172.259 44.5013L172.283 59.2936L175.019 59.3024L175.07 44.4993L181.125 44.4877L181.125 41.4525C180.143 41.1898 167.697 41.2332 166.221 41.4064L166.221 44.4585V44.4585Z" fill="black"/>
<path fill-rule="evenodd" clip-rule="evenodd" d="M38.3662 59.3083L40.559 59.3073L41.1332 59.3035L41.1342 44.4989L51.9091 44.4935L51.9094 41.4244L51.3779 41.3509L38.3662 41.3632V59.3083Z" fill="#282829"/>
<path fill-rule="evenodd" clip-rule="evenodd" d="M188.827 59.3073H191.613L191.614 41.363L188.826 41.3629L188.827 59.3073Z" fill="black"/>
<path fill-rule="evenodd" clip-rule="evenodd" d="M2.09362 59.2888L4.82392 59.3039L4.88122 41.4358L2.09012 41.3699L2.09362 59.2888Z" fill="#282829"/>
<path fill-rule="evenodd" clip-rule="evenodd" d="M43.1867 51.8667L51.1862 51.8794L51.2623 51.2952L51.2496 49.1366L43.1723 49.1401L43.1867 51.8667Z" fill="#282829"/>
<path fill-rule="evenodd" clip-rule="evenodd" d="M149.914 38.8383L149.902 40.2321L155.466 38.903L155.512 37.2936H154.557L149.914 38.8383Z" fill="black" stroke="black" stroke-width="0.0762" stroke-miterlimit="22.9256"/>
<path fill-rule="evenodd" clip-rule="evenodd" d="M15.6257 44.7736L15.9606 44.9491C15.96 44.9484 15.9594 44.9478 15.9588 44.9471C15.8675 44.8484 15.7551 44.7177 15.6347 44.5804C15.6315 44.6448 15.6286 44.7092 15.6257 44.7736V44.7736ZM28.5659 57.7455C28.5935 57.7763 28.6212 57.8071 28.6488 57.8379C28.7083 57.9042 28.7979 58.0016 28.9025 58.11C28.9063 58.0598 28.9098 58.0087 28.9131 57.9566L28.5659 57.7455V57.7455Z" fill="#F37235"/>
</svg>
